<svg width="40" height="40" viewBox="0 0 40 40" fill="none" xmlns="http://www.w3.org/2000/svg">
<g id="mingcute:battery-4-line" clip-path="url(#clip0_184_15)">
<g id="Group">
<path id="Vector" d="M30 10C30.841 9.99973 31.651 10.3173 32.2676 10.8892C32.8843 11.461 33.262 12.2447 33.325 13.0833L33.3334 13.3333V15C34.1743 14.9997 34.9843 15.3173 35.601 15.8892C36.2176 16.461 36.5953 17.2447 36.6584 18.0833L36.6667 18.3333V21.6667C36.667 22.5076 36.3494 23.3176 35.7775 23.9342C35.2057 24.5509 34.422 24.9286 33.5834 24.9917L33.3334 25V26.6667C33.3336 27.5076 33.016 28.3176 32.4442 28.9342C31.8724 29.5509 31.0886 29.9286 30.25 29.9917L30 30H6.66671C5.82575 30.0003 5.01576 29.6827 4.39913 29.1108C3.78249 28.539 3.40478 27.7553 3.34171 26.9167L3.33337 26.6667V13.3333C3.33311 12.4924 3.65072 11.6824 4.22254 11.0658C4.79435 10.4491 5.57812 10.0714 6.41671 10.0083L6.66671 10H30ZM30 13.3333H6.66671V26.6667H30V13.3333ZM10 15C10.4421 15 10.866 15.1756 11.1786 15.4882C11.4911 15.8007 11.6667 16.2246 11.6667 16.6667V23.3333C11.6667 23.7754 11.4911 24.1993 11.1786 24.5118C10.866 24.8244 10.4421 25 10 25C9.55801 25 9.13409 24.8244 8.82153 24.5118C8.50897 24.1993 8.33337 23.7754 8.33337 23.3333V16.6667C8.33337 16.2246 8.50897 15.8007 8.82153 15.4882C9.13409 15.1756 9.55801 15 10 15ZM15 15C15.4083 15.0001 15.8023 15.1499 16.1073 15.4212C16.4124 15.6925 16.6073 16.0662 16.655 16.4717L16.6667 16.6667V23.3333C16.6662 23.7581 16.5036 24.1667 16.212 24.4756C15.9203 24.7845 15.5218 24.9704 15.0977 24.9953C14.6736 25.0202 14.2561 24.8822 13.9303 24.6096C13.6046 24.3369 13.3952 23.9502 13.345 23.5283L13.3334 23.3333V16.6667C13.3334 16.2246 13.509 15.8007 13.8215 15.4882C14.1341 15.1756 14.558 15 15 15ZM20 15C20.4421 15 20.866 15.1756 21.1786 15.4882C21.4911 15.8007 21.6667 16.2246 21.6667 16.6667V23.3333C21.6667 23.7754 21.4911 24.1993 21.1786 24.5118C20.866 24.8244 20.4421 25 20 25C19.558 25 19.1341 24.8244 18.8215 24.5118C18.509 24.1993 18.3334 23.7754 18.3334 23.3333V16.6667C18.3334 16.2246 18.509 15.8007 18.8215 15.4882C19.1341 15.1756 19.558 15 20 15ZM25 15C25.4083 15.0001 25.8023 15.1499 26.1073 15.4212C26.4124 15.6925 26.6073 16.0662 26.655 16.4717L26.6667 16.6667V23.3333C26.6662 23.7581 26.5036 24.1667 26.212 24.4756C25.9203 24.7845 25.5218 24.9704 25.0977 24.9953C24.6736 25.0202 24.2561 24.8822 23.9303 24.6096C23.6046 24.3369 23.3952 23.9502 23.345 23.5283L23.3334 23.3333V16.6667C23.3334 16.2246 23.509 15.8007 23.8215 15.4882C24.1341 15.1756 24.558 15 25 15Z" fill="#2C74D3"/>
</g>
</g>
<defs>
<clipPath id="clip0_184_15">
<rect width="40" height="40" fill="white"/>
</clipPath>
</defs>
</svg>
