<svg width="40" height="40" viewBox="0 0 40 40" fill="none" xmlns="http://www.w3.org/2000/svg">
<g id="mingcute:chart-bar-2-line">
<g id="Group">
<path id="Vector" fill-rule="evenodd" clip-rule="evenodd" d="M33.3334 5C34.1743 4.99973 34.9843 5.31734 35.601 5.88916C36.2176 6.46098 36.5953 7.24474 36.6584 8.08333L36.6667 8.33333V31.6667C36.667 32.5076 36.3494 33.3176 35.7775 33.9342C35.2057 34.5509 34.422 34.9286 33.5834 34.9917L33.3334 35H6.66671C5.82575 35.0003 5.01576 34.6827 4.39913 34.1108C3.78249 33.539 3.40478 32.7553 3.34171 31.9167L3.33337 31.6667V23.3333C3.33311 22.4924 3.65072 21.6824 4.22254 21.0658C4.79435 20.4491 5.57812 20.0714 6.41671 20.0083L6.66671 20H13.3334V16.6667C13.3331 15.8257 13.6507 15.0157 14.2225 14.3991C14.7944 13.7825 15.5781 13.4047 16.4167 13.3417L16.6667 13.3333H23.3334V8.33333C23.3331 7.49237 23.6507 6.68239 24.2225 6.06575C24.7944 5.44912 25.5781 5.07141 26.4167 5.00833L26.6667 5H33.3334ZM33.3334 8.33333H26.6667V31.6667H33.3334V8.33333ZM23.3334 16.6667H16.6667V31.6667H23.3334V16.6667ZM13.3334 23.3333H6.66671V31.6667H13.3334V23.3333Z" fill="#2C74D3"/>
</g>
</g>
</svg>
