<svg width="40" height="40" viewBox="0 0 40 40" fill="none" xmlns="http://www.w3.org/2000/svg">
<g id="mingcute:light-line" clip-path="url(#clip0_184_7)">
<g id="Group">
<path id="Vector" fill-rule="evenodd" clip-rule="evenodd" d="M20 31.6666C20.4083 31.6666 20.8023 31.8165 21.1073 32.0878C21.4124 32.359 21.6073 32.7328 21.655 33.1383L21.6667 33.3333V34.9999C21.6662 35.4247 21.5036 35.8333 21.212 36.1422C20.9203 36.4511 20.5218 36.637 20.0977 36.6619C19.6736 36.6868 19.2561 36.5488 18.9303 36.2761C18.6046 36.0035 18.3952 35.6167 18.345 35.1949L18.3334 34.9999V33.3333C18.3334 32.8912 18.509 32.4673 18.8215 32.1547C19.1341 31.8422 19.558 31.6666 20 31.6666ZM11.75 28.2499C12.0625 28.5625 12.238 28.9863 12.238 29.4283C12.238 29.8702 12.0625 30.294 11.75 30.6066L10.5717 31.7849C10.418 31.9441 10.2341 32.0711 10.0307 32.1584C9.82737 32.2458 9.60867 32.2917 9.38738 32.2937C9.16608 32.2956 8.94661 32.2534 8.74178 32.1696C8.53696 32.0858 8.35087 31.9621 8.19438 31.8056C8.03789 31.6491 7.91414 31.463 7.83034 31.2582C7.74654 31.0533 7.70437 30.8339 7.70629 30.6126C7.70821 30.3913 7.75419 30.1726 7.84154 29.9692C7.92889 29.7659 8.05586 29.582 8.21504 29.4283L9.39337 28.2499C9.70592 27.9375 10.1298 27.7619 10.5717 27.7619C11.0136 27.7619 11.4375 27.9375 11.75 28.2499ZM30.6067 28.2499L31.785 29.4283C32.0886 29.7426 32.2566 30.1636 32.2528 30.6006C32.249 31.0376 32.0738 31.4556 31.7647 31.7646C31.4557 32.0736 31.0377 32.2489 30.6007 32.2527C30.1637 32.2565 29.7427 32.0885 29.4284 31.7849L28.25 30.6066C27.9464 30.2922 27.7785 29.8712 27.7823 29.4342C27.786 28.9973 27.9613 28.5792 28.2703 28.2702C28.5794 27.9612 28.9974 27.7859 29.4344 27.7821C29.8714 27.7783 30.2924 27.9463 30.6067 28.2499ZM21.0284 3.33325C21.841 3.33308 22.6256 3.62973 23.2349 4.16746C23.8441 4.70518 24.2359 5.44693 24.3367 6.25325L24.97 11.3199C26.8828 12.4155 28.38 14.1123 29.2289 16.1466C30.0777 18.1809 30.2306 20.4387 29.6638 22.5689C29.0969 24.6991 27.8421 26.5823 26.0945 27.9257C24.3469 29.2691 22.2043 29.9974 20 29.9974C17.7957 29.9974 15.6532 29.2691 13.9056 27.9257C12.1579 26.5823 10.9031 24.6991 10.3363 22.5689C9.76949 20.4387 9.92237 18.1809 10.7712 16.1466C11.62 14.1123 13.1173 12.4155 15.03 11.3199L15.6634 6.25325C15.7641 5.44693 16.156 4.70518 16.7652 4.16746C17.3744 3.62973 18.1591 3.33308 18.9717 3.33325H21.0284ZM20 13.3333C18.2319 13.3333 16.5362 14.0356 15.286 15.2859C14.0358 16.5361 13.3334 18.2318 13.3334 19.9999C13.3334 21.768 14.0358 23.4637 15.286 24.714C16.5362 25.9642 18.2319 26.6666 20 26.6666C21.7682 26.6666 23.4638 25.9642 24.7141 24.714C25.9643 23.4637 26.6667 21.768 26.6667 19.9999C26.6667 18.2318 25.9643 16.5361 24.7141 15.2859C23.4638 14.0356 21.7682 13.3333 20 13.3333ZM6.66671 18.3333C7.10873 18.3333 7.53266 18.5088 7.84522 18.8214C8.15778 19.134 8.33337 19.5579 8.33337 19.9999C8.33337 20.4419 8.15778 20.8659 7.84522 21.1784C7.53266 21.491 7.10873 21.6666 6.66671 21.6666H5.00004C4.55801 21.6666 4.13409 21.491 3.82153 21.1784C3.50897 20.8659 3.33337 20.4419 3.33337 19.9999C3.33337 19.5579 3.50897 19.134 3.82153 18.8214C4.13409 18.5088 4.55801 18.3333 5.00004 18.3333H6.66671ZM35 18.3333C35.4421 18.3333 35.866 18.5088 36.1786 18.8214C36.4911 19.134 36.6667 19.5579 36.6667 19.9999C36.6667 20.4419 36.4911 20.8659 36.1786 21.1784C35.866 21.491 35.4421 21.6666 35 21.6666H33.3334C32.8913 21.6666 32.4674 21.491 32.1549 21.1784C31.8423 20.8659 31.6667 20.4419 31.6667 19.9999C31.6667 19.5579 31.8423 19.134 32.1549 18.8214C32.4674 18.5088 32.8913 18.3333 33.3334 18.3333H35ZM31.785 8.21658C32.0975 8.52913 32.273 8.95298 32.273 9.39492C32.273 9.83686 32.0975 10.2607 31.785 10.5733L30.6067 11.7516C30.453 11.9108 30.2691 12.0377 30.0657 12.1251C29.8624 12.2124 29.6437 12.2584 29.4224 12.2603C29.2011 12.2623 28.9816 12.2201 28.7768 12.1363C28.572 12.0525 28.3859 11.9287 28.2294 11.7722C28.0729 11.6158 27.9491 11.4297 27.8653 11.2248C27.7815 11.02 27.7394 10.8005 27.7413 10.5793C27.7432 10.358 27.7892 10.1393 27.8765 9.93591C27.9639 9.73257 28.0909 9.54866 28.25 9.39492L29.4284 8.21658C29.7409 7.90413 30.1648 7.72861 30.6067 7.72861C31.0486 7.72861 31.4725 7.90413 31.785 8.21658ZM10.5717 8.21658L11.75 9.39492C12.0461 9.71067 12.2078 10.1292 12.2007 10.562C12.1937 10.9948 12.0186 11.4079 11.7124 11.7139C11.4062 12.0199 10.993 12.1947 10.5602 12.2014C10.1274 12.2082 9.70892 12.0462 9.39337 11.7499L8.21504 10.5716C7.91895 10.2558 7.75732 9.83727 7.76434 9.40447C7.77137 8.97166 7.94651 8.55857 8.2527 8.2526C8.55888 7.94663 8.9721 7.77178 9.40491 7.76506C9.83772 7.75834 10.2562 7.92027 10.5717 8.21658ZM21.0284 6.66659H18.9717L18.555 9.99992H21.445L21.0284 6.66659Z" fill="#2C74D3"/>
</g>
</g>
<defs>
<clipPath id="clip0_184_7">
<rect width="40" height="40" fill="white"/>
</clipPath>
</defs>
</svg>
