<svg width="13" height="9" viewBox="0 0 13 9" fill="none" xmlns="http://www.w3.org/2000/svg">
<path d="M2.56789 0.0411883L10.9879 0.041189C11.3203 0.0407075 11.6461 0.134375 11.9274 0.311348C12.2088 0.488321 12.4343 0.741364 12.5779 1.04119C12.7459 1.39693 12.8106 1.79272 12.7647 2.18346C12.7187 2.57419 12.5639 2.94416 12.3179 3.25119L8.10788 8.35119C7.94267 8.54182 7.7384 8.6947 7.50893 8.79949C7.27946 8.90427 7.03015 8.9585 6.77788 8.9585C6.52562 8.9585 6.27631 8.90427 6.04684 8.79949C5.81737 8.6947 5.6131 8.54182 5.44789 8.35119L1.23788 3.25119C0.991878 2.94416 0.83707 2.57419 0.791101 2.18346C0.745132 1.79272 0.809853 1.39693 0.977886 1.04119C1.12143 0.741363 1.34694 0.48832 1.62833 0.311347C1.90972 0.134374 2.23547 0.0407067 2.56789 0.0411883Z" fill="#191919"/>
</svg>
