<svg width="32" height="32" viewBox="0 0 32 32" fill="none" xmlns="http://www.w3.org/2000/svg">
<path d="M4.91605 15.0308C4.78875 14.9105 4.63901 14.8164 4.47537 14.754C4.31173 14.6916 4.1374 14.662 3.96233 14.667C3.78726 14.6719 3.61489 14.7113 3.45504 14.7829C3.29519 14.8545 3.151 14.9568 3.03071 15.0841C2.91042 15.2114 2.81638 15.3611 2.75396 15.5248C2.69154 15.6884 2.66196 15.8628 2.66691 16.0378C2.67187 16.2129 2.71125 16.3853 2.78283 16.5451C2.8544 16.705 2.95675 16.8492 3.08405 16.9694L15.084 28.3028C15.3316 28.5368 15.6594 28.6672 16 28.6672C16.3407 28.6672 16.6685 28.5368 16.916 28.3028L28.9174 16.9694C29.0475 16.8499 29.1525 16.7058 29.2264 16.5454C29.3003 16.3849 29.3416 16.2114 29.3479 16.0349C29.3541 15.8584 29.3253 15.6823 29.2629 15.5171C29.2006 15.3518 29.1061 15.2005 28.9848 15.0721C28.8635 14.9437 28.7179 14.8406 28.5565 14.7689C28.3951 14.6973 28.221 14.6584 28.0444 14.6545C27.8678 14.6507 27.6922 14.682 27.5278 14.7465C27.3634 14.8111 27.2135 14.9078 27.0867 15.0308L16 25.5001L4.91605 15.0308Z" fill="#555555"/>
</svg>
