<svg width="230" height="124" viewBox="0 0 230 124" fill="none" xmlns="http://www.w3.org/2000/svg">
<path d="M161.124 45.5391C161.124 45.5391 156.812 46.4691 151.8 49.4451C146.778 52.4263 143.865 55.7743 146.021 56.6629C146.855 57.0039 148.771 57.0711 152.25 55.3713C155.451 53.871 157.964 51.9911 159.591 49.8791C161.834 46.9341 161.124 45.5753 161.124 45.5391ZM188.562 50.9021C182.994 49.3573 178.921 47.4714 174.685 46.3038C170.641 45.1878 168.024 44.7176 164.756 44.9553C164.302 44.999 163.854 45.0594 163.415 45.1361C163.415 45.1361 165.101 48.2361 158.403 53.4389C151.618 58.7193 145.465 58.6831 143.712 57.2313C141.881 55.7019 144.248 52.5813 148.196 49.8068C152.337 46.9031 159.601 44.4954 159.601 44.4954C159.601 44.4954 157.291 43.7308 151.599 45.4771C146.04 47.1614 136.486 51.1966 127.621 57.9959C118.747 64.7953 116.984 68.5359 115.719 71.4809C114.454 74.4259 115.604 77.5776 121.66 77.5776C127.717 77.5776 134.77 72.5969 136.764 70.8661C140.463 67.6421 142.868 62.6976 137.837 63.3744C135.355 63.7103 133.352 65.1879 132.087 66.6139C131.288 67.5294 130.677 68.4892 130.266 69.4763C128.505 69.8666 126.851 70.3846 125.35 71.0159C123.682 71.6833 122.124 72.4266 120.692 73.2376C120.692 73.2376 120.711 70.8816 124.19 67.0686C127.679 63.2608 134.061 61.5196 137.684 61.3543C140.942 61.2148 145.187 62.7079 141.594 68.2104C138 73.7129 127.381 80.4038 116.236 80.4864C105.953 80.5639 99.2161 73.4856 113.534 61.1373C129.384 47.4818 147.976 43.2968 154.004 42.8318C160.041 42.3668 162.006 43.7979 162.006 43.7979C165.638 42.9955 169.56 42.6475 173.477 42.7801C180.856 43.0488 186.549 45.8594 194.081 47.8383C192.117 48.8458 190.248 49.9049 188.571 50.8969M221.672 46.2986C216.564 48.0656 209.501 49.6673 202.706 49.3263C200.991 50.2821 199.151 51.3929 197.311 52.6019C209.079 53.8574 219.401 49.9204 224.882 46.5724C226.882 45.371 228.601 44.0419 230 42.6148C227.502 44.0164 224.707 45.2494 221.672 46.2986ZM205.994 64.1908C206.084 64.1073 206.158 64.019 206.214 63.9273C206.18 63.7814 206.053 63.6463 205.856 63.5447C205.659 63.4431 205.403 63.3812 205.131 63.3693C204.01 63.3434 202.476 63.4571 198.471 65.8493C195.142 67.8276 192.277 70.0193 189.941 72.3748C187.641 74.6378 186.712 76.3221 188.025 76.7561C188.456 76.8771 188.956 76.9048 189.424 76.8336C190.315 76.7199 191.331 76.2653 192.874 75.3094C193.593 74.8548 194.388 74.2141 195.346 73.5063C198.001 71.5636 204.671 65.4308 205.994 64.1908ZM164.316 66.7948C164.986 65.8544 165.839 63.9996 164.066 63.2711C162.159 62.4961 157.31 64.3096 157.282 66.1696C157.253 68.0761 160.703 68.9338 161.527 69.0578C162.006 69.1249 162.159 69.1094 162.389 68.9079C163.121 68.2285 163.765 67.5224 164.316 66.7948ZM160.645 70.2564C159.443 69.957 158.321 69.5712 157.31 69.1094C156.299 68.6511 155.454 68.0958 154.819 67.4716C154.742 67.4096 154.675 67.4561 154.598 67.5129C154.531 67.5646 154.224 67.7144 151.637 69.7553C149.049 71.8013 145.082 76.0379 148.666 76.7561C150.976 77.2211 154.809 75.0459 156.908 73.6044C158.329 72.5971 159.616 71.5371 160.76 70.4321C160.875 70.3133 160.76 70.2823 160.645 70.2564ZM201.451 75.1493C200.474 75.9914 199.362 77.6086 202.572 76.6011C206.501 75.3818 212.098 70.7989 212.098 70.7989H214.638C212.328 72.715 209.755 74.5352 206.942 76.2446C202.965 78.6213 198.106 80.7861 194.676 80.5691C190.689 80.3211 191.935 77.4898 191.935 77.4898C191.935 77.4898 186.223 80.7706 182.256 80.5381C176.918 80.2178 178.547 76.6579 178.547 76.6579C178.547 76.6579 172.509 80.6569 168.389 80.5329C161.939 80.3263 163.559 76.0948 165.36 73.1136C166.319 71.5223 167.21 70.2719 167.21 70.2719C167.21 70.2719 166.568 70.3598 165.197 70.4683C164.469 70.5251 163.166 70.5664 163.166 70.5664C163.166 70.5664 160.482 73.1239 158.326 74.6584C156.179 76.1929 147.037 81.4888 141.651 80.4296C136.687 79.4479 138.335 75.3456 141.229 72.0854C145.446 67.3321 157.329 60.4966 164.191 61.4008C171.292 62.3308 164.354 69.3161 164.354 69.3161C164.354 69.3161 164.354 69.3419 164.421 69.3626C164.565 69.3884 164.939 69.4143 165.791 69.3213C166.678 69.2249 167.547 69.0866 168.389 68.9079C168.389 68.9079 175.538 60.8428 183.425 55.5624C191.312 50.2924 207.048 41.1991 213.229 43.4001C214.724 43.9426 214.053 45.8026 212.021 48.0604C211.106 48.2208 210.175 48.3553 209.233 48.4634C210.594 47.1304 211.494 46.0093 211.763 45.2239C212.692 42.4959 200.886 48.2464 192.452 54.4206C187.37 58.1446 182.854 62.0841 178.949 66.2006C180.473 65.6999 181.927 65.1404 183.3 64.5266C187.065 62.8452 190.642 61.0458 194.014 59.1378C197.259 57.3463 200.302 55.4519 203.128 53.4648C204.027 53.4412 204.923 53.3912 205.811 53.3149C202.728 55.5701 199.367 57.7105 195.749 59.7216C192.395 61.5558 188.753 63.5294 185.581 64.9658C182.755 66.2598 179.775 67.4524 176.659 68.5359C176.659 68.5359 169.28 76.5598 173.295 77.0713C175.653 77.3813 180.31 73.5063 180.31 73.5063C180.31 73.5063 186.396 68.5101 190.057 66.2523C195.059 63.1884 199.352 61.4163 203.665 61.3853C206.166 61.3594 207.642 62.7958 207.642 62.7958L208.821 61.8141H216.075C216.075 61.8141 202.524 74.2038 201.441 75.1389M221.672 46.3089C216.564 48.0708 209.501 49.6724 202.706 49.3314C200.982 50.2873 199.151 51.3981 197.301 52.6071C209.079 53.8626 219.391 49.9308 224.882 46.5776C226.883 45.3746 228.601 44.0437 230 42.6148C227.502 44.0164 224.707 45.2494 221.672 46.2986M119.801 52.3849H112.901L109.001 55.7846H115.901L119.801 52.3849ZM87.1219 64.1494C90.064 61.9794 98.1619 54.3793 98.1619 54.3793C98.128 54.2342 98.003 54.0997 97.8078 53.9982C97.6125 53.8967 97.3587 53.8343 97.0886 53.8213C95.9673 53.7903 94.0986 53.9969 90.3802 56.5028C86.6715 59.0086 83.7869 60.9978 81.6882 63.0748C79.3882 65.3378 78.3723 66.9343 79.7044 67.3683C80.1316 67.4837 80.6222 67.5113 81.0844 67.4458C81.9469 67.3321 83.0778 66.8619 84.6207 65.9061C85.4992 65.3382 86.3367 64.7522 87.1315 64.1494M50.1111 53.8678C48.204 53.0928 43.3548 54.9063 43.3261 56.7611C43.2973 58.6676 47.6961 59.2514 48.2615 59.2618C48.4271 59.2698 48.5935 59.2519 48.7407 59.2101C48.8421 59.1775 48.9224 59.1287 48.9707 59.0706C49.4899 58.5241 49.9569 57.9637 50.3698 57.3914C51.0407 56.4459 51.884 54.5963 50.1111 53.8678ZM47.2361 60.4294C45.9215 60.207 44.6654 59.8945 43.4986 59.4994C42.3651 59.1016 41.4436 58.5513 40.8248 57.9029C40.7578 57.8409 40.6811 57.8874 40.614 57.9443C40.5469 57.9959 40.1636 58.2594 37.5665 60.3106C34.979 62.3669 31.1265 66.5623 34.7298 67.2856C37.0298 67.7506 40.9015 65.5599 43.0098 64.1236C44.5853 62.9961 46.0411 61.8214 47.3703 60.6051C47.4565 60.4811 47.3703 60.4501 47.2361 60.4294ZM103.586 61.6901H106.106C106.106 61.6901 93.4469 71.5688 86.2882 71.1089C82.3015 70.8558 83.4803 68.2001 83.4803 68.2001C83.4803 68.2001 77.874 71.7393 72.7182 71.0211C68.0511 70.3753 71.0698 66.1851 71.0698 66.1851C70.5332 66.2988 60.4228 72.4419 53.3119 70.9694C45.8753 69.4194 49.7373 64.2734 51.1557 62.7286C52.3536 61.4214 53.6761 60.1504 53.6761 60.1504C53.6761 60.1504 52.5357 60.3261 51.8073 60.4139L50.0248 60.6206C50.0248 60.6206 46.5078 63.6999 44.3611 65.2396C42.2048 66.7741 33.0719 72.0596 27.6861 71.0108C22.3003 69.9568 23.6323 65.8958 26.6607 62.6666C31.5673 57.4379 43.2015 51.0106 50.2165 51.9819C57.2986 52.9584 51.4336 59.1533 51.4336 59.1533C51.4336 59.1533 52.8423 59.2514 56.2253 58.0063C61.084 56.2186 67.4953 51.4084 74.4432 51.9768C77.7207 52.2403 80.7682 54.0434 76.5994 57.4741C75.2673 58.5746 73.0344 59.5563 71.3286 58.5849C70.2648 57.9753 71.1944 56.8799 72.3157 56.1204C72.7506 55.8131 73.3189 55.5681 73.9706 55.4068C74.6222 55.2456 75.3374 55.173 76.0532 55.1956C76.0532 55.1956 77.2032 53.7851 74.2803 53.8058C71.9132 53.8316 65.9332 56.8024 62.5598 59.7991C59.4644 62.5529 54.7686 67.2443 59.474 68.2673C63.7961 69.2076 72.0186 63.9479 75.8232 61.1889C79.6278 58.4351 88.3007 52.1886 95.584 51.9406C98.0853 51.8528 99.5802 53.0824 99.5802 53.0824L100.424 52.3643H107.697C107.697 52.3643 93.9932 64.6971 92.9198 65.6271C92.0765 66.3556 90.9648 68.0038 94.0411 67.0789C97.1269 66.1593 103.586 61.6901 103.586 61.6901ZM99.6186 81.4474C94.2612 79.4474 87.8455 78.4376 81.3336 78.5696C79.5731 78.5958 77.8488 78.8452 76.3003 79.2976C74.7519 79.75 73.4229 80.3927 72.4211 81.1736C69.6419 78.5644 64.1603 76.9628 55.679 76.9989C41.9748 77.0816 28.3761 80.4916 17.614 80.4864C7.29276 80.4864 -0.239744 76.9886 0.0094223 70.7731C0.459839 59.8766 17.5469 50.0599 30.2928 45.6424C37.6432 43.1108 43.7957 42.3513 47.8111 42.5941C50.7436 42.7698 54.2703 44.5988 52.0469 47.2906C48.779 51.2224 44.2653 50.9021 44.4282 49.0214C44.524 47.7969 46.0382 47.0271 47.169 46.5983C47.989 46.3634 48.9047 46.2427 49.8332 46.2469C50.4848 45.9524 50.9544 43.7979 45.7219 44.5058C40.4894 45.2136 34.1261 47.9984 28.0886 51.5893C22.0511 55.1853 12.6594 61.9794 10.3403 69.1146C9.25734 72.4213 9.96651 78.4559 24.5236 78.3888C36.8573 78.3371 55.0465 73.9506 71.7598 74.0436C77.579 74.0312 83.2943 74.8743 88.2911 76.4823C92.6132 77.9186 97.7978 80.0163 99.6377 81.4474" fill="#191919"/>
</svg>
